<svg
                      class="mail"
                      width="20"
                      height="20"
                      viewBox="0 0 20 20"
                      fill="none"
                      xmlns="http://www.w3.org/2000/svg"
                    >
                      <path
                        d="M3.5904 16.25C3.16946 16.25 2.81315 16.1041 2.52148 15.8125C2.22982 15.5208 2.08398 15.1645 2.08398 14.7436V5.25643C2.08398 4.83549 2.22982 4.47918 2.52148 4.18752C2.81315 3.89585 3.16946 3.75002 3.5904 3.75002H16.4109C16.8318 3.75002 17.1881 3.89585 17.4798 4.18752C17.7714 4.47918 17.9173 4.83549 17.9173 5.25643V14.7436C17.9173 15.1645 17.7714 15.5208 17.4798 15.8125C17.1881 16.1041 16.8318 16.25 16.4109 16.25H3.5904ZM10.0006 10.4647L3.33396 6.20189V14.7436C3.33396 14.8183 3.35801 14.8798 3.40609 14.9279C3.45417 14.976 3.51561 15 3.5904 15H16.4109C16.4857 15 16.5471 14.976 16.5952 14.9279C16.6433 14.8798 16.6673 14.8183 16.6673 14.7436V6.20189L10.0006 10.4647ZM10.0006 9.16666L16.5391 4.99999H3.46217L10.0006 9.16666ZM3.33396 6.20189V4.99999V14.7436C3.33396 14.8183 3.35801 14.8798 3.40609 14.9279C3.45417 14.976 3.51561 15 3.5904 15H3.33396V6.20189Z"
                        fill="#32A4CA"
                      />
                    </svg>