<svg
                class="jll-short2"
                width="82"
                height="36"
                viewBox="0 0 82 36"
                fill="none"
                xmlns="http://www.w3.org/2000/svg"
              >
                <path
                  fill-rule="evenodd"
                  clip-rule="evenodd"
                  d="M48.9992 7.2H42.0307H39.8513V8.04075C40.2902 8.0835 40.6479 8.13024 40.9408 8.19722C41.286 8.27588 41.5411 8.38218 41.7297 8.54293C42.2647 8.99948 42.2646 9.84481 42.2644 11.3636L42.2644 11.4585L42.2641 22.0543C42.264 22.1762 42.2645 22.301 42.265 22.428C42.2739 24.5465 42.2852 27.2616 39.4024 27.2236C38.0925 27.2065 36.7479 26.2737 36.3307 24.5691H35.2793C35.7239 27.4254 37.2455 29.3631 40.9326 29.3631H40.9408H40.9494C44.0816 29.3631 46.8766 27.9242 46.8717 23.0333V14.7896V11.4588L46.8717 11.3639C46.8715 9.84651 46.8714 9.03539 47.4064 8.57884C47.7555 8.28101 48.0445 8.13366 48.9992 8.04075V7.2ZM59.4915 7.20022H50.3435V7.2005V7.99965V8.04097C51.2988 8.13388 51.5875 8.28123 51.9364 8.57905C52.3741 8.95269 52.4534 9.56402 52.4679 10.6043L52.4674 10.7484C52.4665 11.0257 52.4654 11.3298 52.4707 11.6639V24.3374C52.465 24.6828 52.4663 24.996 52.4674 25.281L52.4679 25.397C52.4534 26.4373 52.3741 27.0486 51.9364 27.4219C51.5872 27.7198 51.2985 27.8671 50.3435 27.96V28.0013V28.8005H59.4917H59.5291H64.1663L65.6241 24.5696H64.5505C63.488 26.8941 61.8453 27.1657 60.3467 27.1657C59.1212 27.1657 58.3059 27.0967 57.7276 26.7223C57.261 26.4239 57.0866 25.6364 57.0784 24.302V11.699V11.459L57.0783 11.3619C57.0781 9.8445 57.078 9.00005 57.613 8.54371C57.9621 8.24589 58.5364 8.13417 59.4915 8.04126V7.20022ZM65.587 7.20022H74.7352V8.04126C73.7802 8.13417 73.2059 8.24589 72.8571 8.54371C72.322 8.99982 72.3222 9.84368 72.3224 11.3597L72.3224 11.459V11.699V24.302C72.3304 25.6364 72.5048 26.4239 72.9711 26.7223C73.5496 27.0967 74.3647 27.1657 75.5905 27.1657C77.0891 27.1657 78.7318 26.8941 79.7943 24.5696H80.8679L79.4101 28.8005H74.7726H74.7352H65.587V28.0013V27.96C66.5417 27.8671 66.8307 27.7198 67.1799 27.4219C67.6176 27.0486 67.6966 26.4373 67.7111 25.397L67.7107 25.3012C67.7096 25.0108 67.7083 24.6911 67.7142 24.3374V11.6639C67.7085 11.3019 67.7097 10.9751 67.7108 10.6795L67.7111 10.6043C67.6968 9.56402 67.6176 8.95269 67.1799 8.57905C66.831 8.28123 66.542 8.13388 65.587 8.04097V7.99965V7.2005V7.20022Z"
                  fill="black"
                />
                <path
                  d="M32.1316 13.3329C31.7611 10.9349 31.0435 8.48649 29.9194 6.28514C28.9992 4.4825 27.7739 2.77192 26.1417 1.55041C24.9242 0.638688 23.3977 0.0381901 21.8664 0.000284845H21.8662V0H21.8659C20.9009 0.0242251 19.9384 0.271891 19.0535 0.679443C18.4712 0.411257 17.8553 0.216601 17.2269 0.105165C17.0759 0.0783753 16.9242 0.0535806 16.7723 0.0370505L16.772 0.0373354C16.5956 0.0182402 16.4186 0.00455987 16.2417 0.000284845H16.2414H16.2411C15.2764 0.024225 14.3136 0.272176 13.429 0.679728C12.5441 0.272176 11.5816 0.024225 10.6172 0.000284845H10.6163V0H10.6157C9.08471 0.0381902 7.55768 0.638688 6.34101 1.55012C4.70852 2.77164 3.48302 4.4825 2.56275 6.28485C1.43842 8.48621 0.721071 10.9347 0.35057 13.3327C0.109459 14.8948 -0.000835794 16.4608 0.000589211 17.9998H1.95225e-05C-0.00169048 19.5389 0.108889 21.1046 0.350285 22.6673C0.720786 25.065 1.43842 27.5135 2.56246 29.7148C3.48273 31.5175 4.70824 33.228 6.34044 34.4496C7.55768 35.3613 9.08414 35.9618 10.6157 36H10.616C11.581 35.9757 12.5438 35.7278 13.4284 35.3202C13.429 35.32 13.4293 35.3197 13.4296 35.3194C13.429 35.3197 13.429 35.3202 13.4284 35.3202C14.0104 35.5884 14.6266 35.7828 15.2547 35.8945C15.4057 35.9213 15.5574 35.9461 15.7096 35.9623C15.7098 35.9623 15.7104 35.9624 15.7107 35.9621C15.7101 35.9621 15.7101 35.9623 15.7096 35.9623C15.886 35.9814 16.0632 35.9948 16.2402 35.9994H16.2405V35.9988H16.2408C17.2055 35.9749 18.1683 35.7269 19.0526 35.3194C19.0532 35.3191 19.054 35.3185 19.0546 35.3182C19.054 35.3185 19.0538 35.3194 19.0529 35.3197C19.9378 35.7275 20.9 35.9749 21.8644 35.9994H21.8653V35.9991H21.8656C23.3963 35.9609 24.9234 35.3604 26.1403 34.4487C27.7728 33.2275 28.998 31.5166 29.9183 29.7143C31.0426 27.5129 31.76 25.0642 32.1307 22.6662C32.3719 21.1038 32.4822 19.538 32.4807 17.999H32.481C32.4833 16.4611 32.373 14.8953 32.1316 13.3329ZM29.3298 20.3249C29.0459 24.436 27.9327 28.562 25.6128 32.0065C24.6195 33.4843 23.3442 34.9133 21.8639 35.9498C21.2993 35.5565 20.7678 35.1071 20.2707 34.6206C20.2704 34.6206 20.2704 34.6206 20.2704 34.6206C20.2704 34.6206 20.2707 34.6206 20.2707 34.6203C20.3525 34.5633 20.4369 34.5094 20.5164 34.4496C22.1486 33.228 23.3735 31.5172 24.2944 29.7148C25.4184 27.5138 26.1358 25.065 26.5065 22.667C26.7476 21.1047 26.8582 19.5389 26.8562 17.9998H26.8568C26.8585 16.4608 26.7479 14.895 26.5068 13.3327C26.1363 10.9347 25.4187 8.48649 24.2949 6.28485C23.4448 4.62016 22.3301 3.03869 20.8798 1.84367C20.4135 2.34243 19.9814 2.87225 19.5847 3.41631C19.7238 3.60727 19.8589 3.79964 19.9897 3.99316C22.3088 7.43825 23.422 11.5642 23.7053 15.6754C23.7583 16.446 23.7834 17.2224 23.7842 17.9996C23.7834 18.7773 23.7583 19.5534 23.7053 20.324C23.4214 24.4352 22.3085 28.5614 19.9888 32.006C19.6996 32.4363 19.3861 32.8595 19.0535 33.2714C18.6741 33.7413 18.2694 34.1956 17.8362 34.6197C17.3754 35.0709 16.8835 35.487 16.3645 35.8592C16.3297 35.8843 16.2813 35.9213 16.2411 35.9507C16.2157 35.933 16.1909 35.9128 16.1653 35.8945C16.0114 35.7857 15.8589 35.6736 15.7104 35.5571C15.3399 35.2655 14.9851 34.9515 14.6465 34.6203C14.6462 34.6203 14.6462 34.6203 14.6459 34.62C14.6459 34.62 14.6462 34.62 14.6462 34.6197C14.728 34.563 14.8127 34.5088 14.8919 34.4493C15.3787 34.0853 15.8244 33.6741 16.2411 33.2335C16.2417 33.2329 16.2422 33.232 16.2428 33.2315C16.2422 33.232 16.2419 33.2332 16.2411 33.2337C16.5512 33.5609 16.8798 33.8693 17.2278 34.1557C17.694 33.657 18.1258 33.1272 18.5225 32.5828C18.3834 32.3921 18.2481 32.1998 18.1181 32.006C17.9753 31.7939 17.8505 31.5713 17.7168 31.3542H17.7165L17.7168 31.3539C18.0648 30.8232 18.384 30.2746 18.6701 29.7143C19.7942 27.5132 20.5118 25.0645 20.8823 22.6665C21.1234 21.1041 21.2337 19.5383 21.2323 17.9993C21.234 16.4603 21.1234 14.8945 20.8823 13.3321C20.5121 10.9341 19.7939 8.48592 18.6701 6.28428C18.5399 6.02892 18.4014 5.77613 18.2586 5.52532C17.6595 6.62287 17.171 7.77484 16.7723 8.95902C17.5011 11.125 17.9237 13.4002 18.0805 15.6745C18.1335 16.4452 18.154 17.2218 18.1549 17.999H18.152C18.1514 18.7765 18.1332 19.5531 18.0802 20.3235C17.889 23.1008 17.3064 25.8801 16.2411 28.4568C15.827 29.4586 15.3365 30.4268 14.7656 31.3533C14.632 31.5708 14.5071 31.7931 14.3644 32.0054C14.0748 32.4357 13.7613 32.859 13.429 33.2708C13.0494 33.7408 12.6447 34.1953 12.2112 34.6191C11.7506 35.0703 11.2584 35.4867 10.7394 35.8586C10.6981 35.8885 10.6582 35.9207 10.6163 35.9501C9.12718 34.9124 7.86747 33.4902 6.86883 32.0057C4.54949 28.5609 3.43599 24.4346 3.1527 20.3235C3.09969 19.5528 3.07461 18.7765 3.07375 17.999C3.07461 17.2212 3.09969 16.4452 3.1527 15.6745C3.43656 11.5637 4.54977 7.4374 6.8694 3.99259C7.86491 2.51172 9.13516 1.08728 10.6194 0.0501599C11.1837 0.443747 11.715 0.892625 12.2117 1.37855C12.1299 1.43555 12.0456 1.4897 11.9661 1.54927C10.3339 2.77079 9.10865 4.48136 8.18838 6.284C7.06406 8.48535 6.34671 10.9338 5.97592 13.3318C5.73481 14.8942 5.62423 16.46 5.62622 17.999H5.62565C5.62423 19.5383 5.73453 21.1038 5.97564 22.6662C6.34614 25.0639 7.06405 27.5126 8.18781 29.714C9.03797 31.3787 10.1526 32.9601 11.603 34.1552C12.0692 33.6561 12.5013 33.1266 12.8983 32.5822C12.7592 32.3916 12.6239 32.1989 12.4933 32.0054C10.1743 28.5606 9.06106 24.4346 8.77748 20.3232C8.72447 19.5528 8.69939 18.7762 8.69853 17.999C8.69939 17.2212 8.72447 16.4452 8.77748 15.6745C9.06134 11.5634 10.1743 7.4374 12.4939 3.99259C12.7832 3.56223 13.0967 3.13929 13.4293 2.72747C13.8086 2.2575 14.2133 1.80349 14.6465 1.37912C15.1074 0.927965 15.5993 0.511863 16.1183 0.139651C16.1559 0.112576 16.2023 0.0769499 16.2419 0.0484497C16.2676 0.0664048 16.2921 0.0863556 16.3175 0.104596H16.3178C16.4714 0.213466 16.6238 0.325186 16.7726 0.442037C17.1431 0.733309 17.4977 1.04738 17.8362 1.37884C17.7542 1.43555 17.6701 1.48999 17.5906 1.54927C17.1041 1.91293 16.658 2.32447 16.2414 2.7648C15.9316 2.43762 15.603 2.12953 15.255 1.84282C14.7887 2.34157 14.3569 2.87139 13.9602 3.41574C14.0993 3.60641 14.2344 3.79879 14.3646 3.9923C14.5074 4.20434 14.6323 4.42693 14.7659 4.6441C14.4179 5.17477 14.0987 5.72369 13.8126 6.28371C12.6888 8.48507 11.9709 10.9335 11.6004 13.3315C11.3593 14.8939 11.249 16.4597 11.2504 17.9987H11.2501C11.2484 19.538 11.359 21.1035 11.6001 22.6659C11.9703 25.0636 12.6885 27.5123 13.8123 29.7137C13.9426 29.9691 14.0811 30.2216 14.2238 30.4727C14.8229 29.3751 15.3114 28.2234 15.7101 27.039C14.9814 24.8727 14.5587 22.5981 14.402 20.3235C14.349 19.5528 14.3284 18.7762 14.3276 17.999H14.3304C14.331 17.2215 14.3492 16.4449 14.4023 15.6745C14.5938 12.8969 15.176 10.1178 16.2411 7.54114C16.6552 6.53908 17.1457 5.57093 17.7168 4.64439C17.8505 4.42693 17.975 4.20463 18.1181 3.99259C18.4077 3.56223 18.7212 3.13929 19.0535 2.72747C19.4328 2.2575 19.8378 1.80321 20.2713 1.37884C20.7318 0.92768 21.224 0.511577 21.743 0.139365C21.7789 0.113715 21.828 0.0778055 21.8681 0.0493054C23.3564 1.08728 24.6153 2.5083 25.6139 3.9923C27.9333 7.43712 29.0468 11.5634 29.33 15.6745C29.3828 16.4452 29.4079 17.2215 29.409 17.999C29.4079 18.7782 29.3825 19.554 29.3298 20.3249Z"
                  fill="#E40917"
                />
              </svg>