<svg
                      class="nightlight"
                      width="24"
                      height="24"
                      viewBox="0 0 24 24"
                      fill="none"
                      xmlns="http://www.w3.org/2000/svg"
                    >
                      <path
                        d="M14.25 21.5C12.9474 21.5 11.7187 21.2508 10.5638 20.7525C9.40898 20.2542 8.40046 19.5739 7.53827 18.7117C6.67609 17.8495 5.99583 16.841 5.4975 15.6861C4.99917 14.5313 4.75 13.3036 4.75 12.0031C4.75 10.6867 4.99968 9.45352 5.49905 8.30366C5.9984 7.15381 6.6782 6.14875 7.53845 5.28848C8.3987 4.42823 9.4074 3.74843 10.5646 3.24908C11.7217 2.74971 12.9502 2.50003 14.25 2.50003C14.9705 2.50003 15.6676 2.58144 16.3413 2.74426C17.015 2.90707 17.6512 3.14746 18.2499 3.46541C16.8807 4.40644 15.7884 5.6167 14.973 7.09618C14.1576 8.57566 13.7499 10.2103 13.7499 12C13.7499 13.7897 14.1576 15.4243 14.973 16.9038C15.7884 18.3833 16.8807 19.5936 18.2499 20.5346C17.6512 20.8526 17.015 21.0929 16.3413 21.2558C15.6676 21.4186 14.9705 21.5 14.25 21.5ZM14.25 20H14.775C14.9416 20 15.1 19.9833 15.25 19.95C14.3 18.85 13.5625 17.6208 13.0375 16.2625C12.5125 14.9042 12.25 13.4833 12.25 12C12.25 10.5167 12.5125 9.09584 13.0375 7.73751C13.5625 6.37917 14.3 5.15001 15.25 4.05001C15.1 4.01667 14.9416 4.00001 14.775 4.00001H14.25C12.0333 4.00001 10.1458 4.77917 8.58748 6.33751C7.02914 7.89584 6.24998 9.78334 6.24998 12C6.24998 14.2167 7.02914 16.1042 8.58748 17.6625C10.1458 19.2208 12.0333 20 14.25 20Z"
                        fill="#01151C"
                      />
                    </svg>